<svg width="1000" height="550" xmlns="http://www.w3.org/2000/svg">
 <metadata id="metadata23">image/svg+xml</metadata>

 <g>
  <title>background</title>
  <rect fill="none" id="canvas_background" height="552" width="1002" y="-1" x="-1"/>
 </g>
 <g>
  <title>Layer 1</title>
  <g transform="matrix(4.4299631,0,0,4.4299631,-105.165783,-127.04783) " id="g4158">
   <polygon stroke-dasharray="5,2,2,2,2,2" fill="#00579f" id="polygon9" points="121.56259155273438,101.68521118164062 103.27559661865234,101.68521118164062 114.71359252929688,30.96120834350586 132.99960327148438,30.96120834350586 "/>
   <path stroke-dasharray="5,2,2,2,2,2" fill="#00579f" id="path11" d="m187.854603,31.690208c-3.607,-1.431 -9.328,-3.011 -16.402,-3.011c-18.059,0 -30.776,9.63 -30.854,23.398c-0.15,10.158 9.105,15.8 16.027,19.187c7.075,3.461 9.48,5.72 9.48,8.805c-0.072,4.738 -5.717,6.922 -10.982,6.922c-7.301,0 -11.213,-1.126 -17.158,-3.762l-2.408,-1.13l-2.559,15.876c4.289,1.954 12.191,3.688 20.395,3.764c19.188,0 31.68,-9.481 31.828,-24.153c0.073,-8.051 -4.814,-14.22 -15.35,-19.261c-6.396,-3.236 -10.313,-5.418 -10.313,-8.729c0.075,-3.01 3.313,-6.093 10.533,-6.093c5.945,-0.151 10.313,1.278 13.622,2.708l1.654,0.751l2.487,-15.272l0,0z"/>
   <path stroke-dasharray="5,2,2,2,2,2" fill="#00579f" id="path13" d="m212.159603,76.630208c1.506,-4.063 7.301,-19.788 7.301,-19.788c-0.076,0.151 1.503,-4.138 2.406,-6.771l1.278,6.094c0,0 3.463,16.929 4.215,20.465c-2.858,0 -11.588,0 -15.2,0l0,0zm22.573,-45.669l-14.145,0c-4.362,0 -7.676,1.278 -9.558,5.868l-27.163,64.855l19.188,0c0,0 3.159,-8.729 3.838,-10.609c2.105,0 20.771,0 23.479,0c0.525,2.483 2.182,10.609 2.182,10.609l16.932,0l-14.753,-70.723l0,0z"/>
   <path stroke-dasharray="5,2,2,2,2,2" fill="#00579f" id="path15" d="m88.001603,30.961208l-17.909,48.227l-1.957,-9.781c-3.311,-11.286 -13.695,-23.548 -25.283,-29.645l16.404,61.848l19.338,0l28.744,-70.649l-19.337,0l0,0z"/>
   <path stroke-dasharray="5,2,2,2,2,2" fill="#faa61a" id="path17" d="m53.462603,30.961208l-29.422,0l-0.301,1.429c22.951,5.869 38.151,20.016 44.396,37.02l-6.396,-32.504c-1.053,-4.517 -4.289,-5.796 -8.277,-5.945l0,0z"/>
  </g>
  <text stroke="null" font-weight="bold" font-style="italic" xml:space="preserve" text-anchor="start" font-family="'Trebuchet MS', Gadget, sans-serif" font-size="174" id="svg_2" y="511" x="126.116749" stroke-opacity="null" stroke-width="0" fill="#454540">ELECTRON</text>
 </g>
</svg>